Hanif_Shallow_2_5_grf.mot
version=1
nRows=58
nColumns=19
inDegrees=yes
endheader
time	right_ground_force_vx	right_ground_force_vy	right_ground_force_vz	right_ground_force_px	right_ground_force_py	right_ground_force_pz	right_ground_torque_x	right_ground_torque_y	right_ground_torque_z	left_ground_force_vx	left_ground_force_vy	left_ground_force_vz	left_ground_force_px	left_ground_force_py	left_ground_force_pz	left_ground_torque_x	left_ground_torque_y	left_ground_torque_z
4.575000	-6.867120	224.997000	45.639100	0.236064	0.000000	-1.429960	-17.139600	-1.134340	8.323960	-5.953000	274.633000	-53.833600	0.237310	0.000000	-0.969433	18.332400	-1.635530	11.038300
4.580000	-5.611130	228.173000	46.243100	0.234751	0.000000	-1.428800	-17.638800	-1.036430	8.132560	-5.698500	274.258000	-53.509900	0.237209	0.000000	-0.970534	18.607200	-1.742020	11.008400
4.585000	-4.970500	231.503000	46.054700	0.234238	0.000000	-1.430220	-17.562400	-1.050180	8.105820	-5.660890	277.910000	-53.775600	0.236884	0.000000	-0.969490	18.562500	-1.772780	11.050000
4.590000	-4.921750	234.815000	45.511800	0.233643	0.000000	-1.429320	-18.027300	-0.821529	8.110520	-5.466610	283.384000	-54.874700	0.236794	0.000000	-0.970197	19.124200	-1.842090	11.245700
4.595000	-4.651540	239.417000	46.231000	0.233330	0.000000	-1.430100	-18.192600	-0.796736	8.191590	-5.821590	285.510000	-54.830200	0.237896	0.000000	-0.970120	19.252400	-1.892630	11.657300
4.600000	-5.299670	245.472000	46.164300	0.232737	0.000000	-1.430980	-18.438300	-0.833492	8.238270	-5.834850	285.859000	-54.927900	0.236616	0.000000	-0.969834	19.192100	-1.856580	11.285200
4.605000	-5.654070	251.926000	46.887500	0.232492	0.000000	-1.430500	-19.044800	-0.835219	8.393190	-6.290900	285.505000	-54.543700	0.236913	0.000000	-0.969293	19.023400	-1.942000	11.374300
4.610000	-6.482620	257.438000	47.336000	0.232338	0.000000	-1.430720	-19.410300	-0.788851	8.551050	-6.387430	286.201000	-54.677500	0.235275	0.000000	-0.969404	19.102700	-2.022850	10.931600
4.615000	-7.086720	264.990000	47.848000	0.231028	0.000000	-1.431390	-19.800300	-0.874851	8.427720	-7.132440	285.632000	-54.376700	0.235530	0.000000	-0.969604	19.135200	-2.034680	10.994000
4.620000	-7.335610	265.025000	48.857400	0.231207	0.000000	-1.431570	-19.759800	-0.851433	8.495440	-6.851050	285.884000	-53.820200	0.235228	0.000000	-0.969599	19.144800	-2.039980	10.897900
4.625000	-7.586130	265.253000	49.410000	0.230271	0.000000	-1.432520	-19.525000	-0.893822	8.245510	-8.054260	283.952000	-52.607500	0.235012	0.000000	-0.969377	18.976500	-2.150950	10.780500
4.630000	-7.380020	267.643000	49.915200	0.229161	0.000000	-1.432080	-19.817900	-0.766685	8.034900	-8.396110	284.333000	-52.214300	0.234595	0.000000	-0.969176	18.948400	-2.126750	10.660900
4.635000	-6.887540	271.553000	50.021700	0.228245	0.000000	-1.433250	-19.784600	-0.749348	7.884450	-8.941670	287.766000	-51.770700	0.233876	0.000000	-0.968935	19.115200	-2.201920	10.566200
4.640000	-6.735180	272.008000	50.286200	0.228250	0.000000	-1.432630	-19.985700	-0.743711	7.900820	-9.932480	288.250000	-51.469400	0.234258	0.000000	-0.969441	19.314300	-2.295990	10.717500
4.645000	-6.987750	274.260000	51.019600	0.227020	0.000000	-1.434570	-19.620900	-0.656316	7.637680	-9.967240	290.599000	-50.668500	0.233733	0.000000	-0.969562	19.504900	-2.353980	10.626900
4.650000	-6.676410	276.439000	51.323000	0.225140	0.000000	-1.434370	-19.830800	-0.540506	7.177800	-10.265400	293.184000	-50.351200	0.232976	0.000000	-0.969571	19.685000	-2.436100	10.489000
4.655000	-6.335720	277.705000	51.961600	0.224840	0.000000	-1.434170	-19.973800	-0.575134	7.117350	-9.715440	299.164000	-50.426200	0.232607	0.000000	-0.968069	19.624000	-2.578370	10.573100
4.660000	-6.494920	282.855000	51.452000	0.223784	0.000000	-1.434400	-20.281800	-0.362448	6.968830	-9.869390	300.557000	-50.245200	0.232485	0.000000	-0.969099	20.029000	-2.659640	10.590100
4.665000	-6.287210	287.458000	51.332300	0.222488	0.000000	-1.434770	-20.502700	-0.353126	6.687410	-9.478700	303.000000	-50.418500	0.231412	0.000000	-0.968416	19.973800	-2.677720	10.330100
4.670000	-7.188620	290.897000	50.601600	0.221673	0.000000	-1.435590	-20.517700	-0.140276	6.559180	-9.419270	305.411000	-50.650600	0.230613	0.000000	-0.968520	20.165400	-2.852300	10.181900
4.675000	-6.711800	294.451000	50.616400	0.221512	0.000000	-1.434830	-20.991600	-0.068618	6.591590	-9.191490	307.800000	-50.288200	0.229934	0.000000	-0.967521	20.007900	-2.871890	10.025600
4.680000	-6.424590	298.393000	50.377200	0.220128	0.000000	-1.434780	-21.287300	0.123032	6.275160	-9.091960	308.962000	-50.384500	0.229053	0.000000	-0.967789	20.165500	-2.984320	9.797880
4.685000	-6.401250	301.729000	49.568800	0.219011	0.000000	-1.434800	-21.517300	0.190208	5.997240	-8.759310	310.146000	-50.606700	0.228613	0.000000	-0.967497	20.147600	-3.086200	9.706100
4.690000	-5.998100	303.217000	49.976400	0.218313	0.000000	-1.436080	-21.234400	0.332407	5.827740	-8.846940	311.156000	-50.598300	0.227737	0.000000	-0.966155	19.797800	-3.191660	9.468530
4.695000	-5.987480	305.328000	49.769300	0.216278	0.000000	-1.436590	-21.224500	0.432828	5.240550	-8.416970	312.789000	-50.317700	0.225962	0.000000	-0.966792	20.092000	-3.306800	8.949150
4.700000	-5.640350	306.663000	49.826600	0.216175	0.000000	-1.436500	-21.347000	0.657083	5.261620	-8.479660	316.282000	-50.435700	0.225731	0.000000	-0.966276	20.155800	-3.488350	8.987070
4.705000	-5.679870	309.063000	50.077300	0.214422	0.000000	-1.437780	-21.119300	0.787724	4.764640	-7.825510	318.342000	-50.507700	0.225058	0.000000	-0.965907	20.154200	-3.464920	8.805640
4.710000	-5.441980	308.269000	50.271600	0.213386	0.000000	-1.438410	-20.869600	0.808680	4.428250	-7.510280	320.977000	-50.618100	0.223712	0.000000	-0.966112	20.379800	-3.549540	8.434740
4.715000	-5.029640	311.099000	50.838200	0.212078	0.000000	-1.439120	-20.834900	0.865136	4.054190	-6.685250	321.362000	-51.026100	0.222881	0.000000	-0.965304	20.132300	-3.705140	8.192900
4.720000	-4.252850	313.740000	51.631400	0.211224	0.000000	-1.439910	-20.761800	1.168530	3.855460	-5.442340	322.563000	-51.757400	0.221283	0.000000	-0.964919	20.062200	-3.862270	7.715670
4.725000	-3.434460	315.689000	51.971100	0.210110	0.000000	-1.440200	-20.794500	1.315590	3.531810	-3.943840	324.467000	-52.468500	0.220567	0.000000	-0.965439	20.324200	-4.005820	7.535260
4.730000	-3.220360	318.798000	52.484400	0.209742	0.000000	-1.440900	-20.774900	1.431150	3.460120	-2.943630	327.175000	-53.404400	0.219679	0.000000	-0.964673	20.226500	-4.174120	7.320930
4.735000	-2.560050	321.308000	52.768800	0.208412	0.000000	-1.441710	-20.674000	1.625370	3.069550	-1.842790	330.438000	-54.087900	0.218837	0.000000	-0.964123	20.227600	-4.315240	7.115900
4.740000	-1.684290	324.292000	53.785300	0.207686	0.000000	-1.441750	-20.846400	1.777250	2.873950	-1.451590	331.493000	-54.719900	0.217879	0.000000	-0.963834	20.189900	-4.380870	6.825840
4.745000	-0.822777	324.678000	54.434500	0.206652	0.000000	-1.441610	-20.911700	2.026160	2.569180	-0.562028	333.838000	-55.250700	0.217031	0.000000	-0.963769	20.296200	-4.478410	6.588050
4.750000	-0.109291	327.859000	54.678100	0.205884	0.000000	-1.442520	-20.813800	2.128620	2.338860	-0.150506	335.386000	-55.298400	0.216169	0.000000	-0.963448	20.276000	-4.577480	6.326600
4.755000	0.491464	330.282000	54.702300	0.204951	0.000000	-1.443430	-20.662200	2.396210	2.071980	-0.225723	336.740000	-55.545600	0.215960	0.000000	-0.963284	20.303600	-4.586730	6.279290
4.760000	0.824687	331.073000	54.678400	0.204015	0.000000	-1.443850	-20.569400	2.669950	1.797840	0.428553	337.948000	-56.109500	0.214652	0.000000	-0.963235	20.349400	-4.652940	5.856440
4.765000	0.702319	330.801000	55.017900	0.202781	0.000000	-1.443550	-20.652200	2.769950	1.398840	0.805688	337.837000	-56.209000	0.213705	0.000000	-0.963150	20.307700	-4.773200	5.544450
4.770000	1.253160	332.067000	55.173000	0.202068	0.000000	-1.444380	-20.451600	3.027970	1.195880	1.576330	342.408000	-56.749200	0.213392	0.000000	-0.961648	20.055900	-4.925180	5.512290
4.775000	1.984700	331.168000	55.130500	0.201165	0.000000	-1.444460	-20.362700	3.191850	0.907609	2.021710	343.913000	-57.376400	0.212007	0.000000	-0.962255	20.346000	-5.007170	5.059570
4.780000	2.056900	332.960000	55.289400	0.199679	0.000000	-1.445560	-20.103000	3.364930	0.428285	2.406890	343.330000	-57.522700	0.211605	0.000000	-0.962101	20.251300	-5.147290	4.934660
4.785000	2.752820	332.769000	55.532800	0.199295	0.000000	-1.445400	-20.139800	3.467960	0.309627	2.549690	343.792000	-57.988900	0.211035	0.000000	-0.961564	20.091600	-5.222620	4.757580
4.790000	3.078850	332.524000	55.381800	0.198324	0.000000	-1.446620	-19.714300	3.760530	0.023266	3.450260	344.323000	-58.168400	0.210348	0.000000	-0.961445	20.067000	-5.285540	4.523760
4.795000	3.371620	333.693000	55.683800	0.197031	0.000000	-1.446560	-19.801200	3.816080	-0.415060	3.912280	345.719000	-58.526600	0.209375	0.000000	-0.960736	19.896400	-5.335220	4.199070
4.800000	3.415800	334.295000	55.555100	0.196146	0.000000	-1.446650	-19.804000	3.897560	-0.709998	4.485760	345.616000	-58.991600	0.208639	0.000000	-0.960809	19.905700	-5.454020	3.959490
4.805000	3.255570	333.648000	55.328100	0.195232	0.000000	-1.447140	-19.604700	4.033790	-0.997293	5.073070	345.379000	-59.246100	0.207527	0.000000	-0.960136	19.650300	-5.512750	3.572270
4.810000	3.504690	333.030000	54.990200	0.195200	0.000000	-1.447160	-19.559200	3.963670	-1.021720	5.597300	343.270000	-59.202700	0.207378	0.000000	-0.960444	19.626800	-5.526200	3.505700
4.815000	3.699030	331.878000	55.198900	0.193965	0.000000	-1.448170	-19.153600	4.161600	-1.401770	6.073970	341.708000	-58.793900	0.206101	0.000000	-0.960367	19.503000	-5.603480	3.050590
4.820000	4.466240	334.051000	55.211900	0.193440	0.000000	-1.448760	-19.073600	4.216520	-1.596530	6.498670	341.634000	-58.230100	0.205348	0.000000	-0.958726	18.932100	-5.612910	2.775150
4.825000	4.812960	333.210000	55.354600	0.192659	0.000000	-1.448910	-18.972300	4.306560	-1.843740	6.274560	339.484000	-57.914300	0.204548	0.000000	-0.959693	19.143000	-5.686180	2.498340
4.830000	4.976960	330.788000	55.563300	0.191782	0.000000	-1.448900	-18.834900	4.335390	-2.114550	6.907710	339.229000	-57.588500	0.204048	0.000000	-0.958573	18.738600	-5.707450	2.316540
4.835000	5.727720	332.353000	55.763700	0.190969	0.000000	-1.449050	-18.863600	4.463020	-2.391940	6.828340	339.249000	-57.494700	0.203349	0.000000	-0.959235	18.967600	-5.669410	2.064410
4.840000	6.771410	333.640000	56.039900	0.190831	0.000000	-1.450150	-18.558600	4.590200	-2.438100	6.407710	339.717000	-57.669000	0.202835	0.000000	-0.958693	18.816500	-5.664220	1.891690
4.845000	6.960340	333.086000	55.887100	0.190239	0.000000	-1.450460	-18.419400	4.722900	-2.615160	6.143450	339.578000	-57.358600	0.202359	0.000000	-0.958072	18.602500	-5.662490	1.723130
4.850000	7.333760	332.359000	55.757000	0.189577	0.000000	-1.450680	-18.302100	4.764830	-2.830460	6.135720	335.681000	-56.981400	0.201301	0.000000	-0.958879	18.659100	-5.640840	1.348780
4.855000	7.364080	329.749000	55.307300	0.188311	0.000000	-1.450490	-18.219900	4.772950	-3.230940	6.112770	334.406000	-56.631600	0.201254	0.000000	-0.958318	18.400500	-5.629180	1.327570
4.860000	7.574740	328.361000	55.632800	0.187713	0.000000	-1.450940	-17.991900	4.857640	-3.398110	6.421830	332.604000	-55.653000	0.200454	0.000000	-0.958390	18.320700	-5.634430	1.038560
